<?xml version="1.0" standalone="no"?>
<!DOCTYPE svg PUBLIC "-//W3C//DTD SVG 20010904//EN"
 "http://www.w3.org/TR/2001/REC-SVG-20010904/DTD/svg10.dtd">
<svg version="1.0" xmlns="http://www.w3.org/2000/svg"
 width="2000.000000pt" height="2000.000000pt" viewBox="0 0 2000.000000 2000.000000"
 preserveAspectRatio="xMidYMid meet">
<metadata>
Created by potrace 1.11, written by Peter Selinger 2001-2013
</metadata>
<g transform="translate(0.000000,2000.000000) scale(0.100000,-0.100000)"
fill="#000000" stroke="none">
<path d="M11727 17593 c-1 0 -232 -3 -513 -5 -280 -3 -515 -7 -520 -11 -6 -3
-35 -8 -66 -11 -31 -3 -67 -10 -80 -15 -12 -5 -25 -8 -28 -8 -13 1 -120 -38
-165 -61 -105 -52 -228 -157 -269 -231 -5 -9 -12 -18 -16 -21 -17 -14 -81
-155 -105 -230 -14 -47 -37 -155 -50 -240 -39 -253 -51 -440 -60 -909 -8 -439
-19 -554 -67 -716 -103 -350 -349 -534 -778 -583 -66 -7 -1412 -8 -2150 -1
-223 2 -425 0 -450 -4 -43 -7 -59 -10 -125 -23 -110 -21 -313 -108 -415 -177
-172 -117 -290 -255 -363 -427 -49 -114 -54 -168 -51 -512 6 -687 15 -1392 20
-1653 12 -526 7 -1105 -11 -1231 -11 -71 -13 -298 -3 -364 15 -113 17 -124 33
-185 8 -33 17 -67 19 -76 23 -90 110 -261 182 -356 151 -197 361 -329 589
-369 39 -6 55 -10 93 -18 9 -2 42 -7 72 -11 30 -4 62 -9 70 -10 104 -19 847
-26 1185 -11 275 12 447 20 690 32 231 11 257 12 500 20 471 15 583 9 759 -36
343 -89 539 -295 560 -590 26 -344 26 -1244 1 -1760 -22 -445 -25 -503 -30
-560 -10 -115 -29 -175 -80 -256 -66 -103 -159 -177 -285 -227 -59 -23 -203
-56 -240 -55 -8 0 -62 -3 -120 -6 -120 -8 -224 -13 -465 -21 -522 -17 -599
-17 -2035 -12 -318 1 -583 -6 -660 -18 -19 -3 -51 -8 -70 -11 -19 -3 -37 -6
-40 -6 -3 -1 -41 -11 -85 -23 -195 -54 -344 -156 -441 -301 -43 -64 -96 -176
-109 -234 -1 -3 -7 -23 -13 -45 -6 -22 -14 -56 -17 -75 -3 -19 -7 -46 -10 -60
-10 -58 -17 -118 -21 -204 -7 -123 -6 -1233 1 -1321 14 -170 88 -381 183 -520
141 -204 397 -364 642 -400 19 -3 53 -7 75 -11 22 -3 474 -7 1005 -9 531 -2
1136 -6 1345 -8 392 -5 454 -1 603 38 361 93 655 367 761 710 61 195 61 194
66 1115 2 283 5 526 8 540 3 14 8 47 12 74 3 27 8 52 10 56 2 4 6 17 9 31 9
51 49 141 87 199 115 172 309 251 649 267 154 7 1757 7 2255 0 317 -4 374 -1
525 27 115 22 336 119 420 184 214 167 344 380 404 662 24 114 28 178 31 515
2 171 7 492 11 715 9 534 11 2216 2 2350 -11 169 -37 268 -109 416 -68 138
-169 266 -299 375 -110 93 -282 177 -420 205 -44 9 -1995 8 -2010 -1 -6 -3 -8
-10 -5 -15 7 -11 -1233 -10 -1314 1 -114 16 -174 32 -257 69 -168 75 -303 237
-335 400 -14 76 -25 210 -34 420 -2 47 -7 144 -10 215 -15 308 -20 1056 -11
1415 6 221 16 432 22 475 25 180 154 347 334 433 36 17 160 62 160 58 0 -2 17
0 38 5 63 14 171 20 464 24 352 5 1793 5 2143 0 489 -8 590 -8 645 -1 119 15
136 17 152 22 9 3 26 7 37 9 12 2 56 16 99 31 291 100 506 323 656 681 31 74
82 250 91 313 4 24 8 47 10 51 4 5 8 36 24 184 9 74 6 489 -3 565 -3 25 -8 79
-12 120 -9 115 -13 149 -29 300 -16 146 -20 178 -29 208 -3 9 -7 33 -10 52 -7
43 -57 194 -81 240 -22 44 -92 148 -119 178 -82 90 -271 193 -401 218 -11 2
-42 8 -70 13 -27 6 -68 14 -90 18 -32 6 -2092 12 -2098 6z"/>
<path d="M15607 14254 c-1 -1 -43 -4 -93 -7 -50 -4 -97 -8 -105 -11 -8 -3 -30
-7 -50 -10 -46 -7 -168 -51 -234 -84 -227 -114 -399 -331 -464 -587 -10 -40
-13 -58 -27 -145 -7 -46 -6 -268 1 -330 2 -19 7 -93 10 -165 4 -71 8 -161 10
-200 2 -38 7 -221 10 -405 9 -556 12 -601 46 -748 23 -100 59 -194 107 -277
50 -85 180 -210 276 -264 75 -43 236 -103 301 -114 17 -3 41 -8 55 -11 35 -8
77 -16 135 -24 63 -9 744 -8 1225 2 201 4 455 9 565 11 988 17 1137 21 1170
29 64 14 84 20 125 33 24 8 79 32 121 54 176 92 323 234 398 385 38 77 47 111
66 251 2 15 6 42 8 58 3 17 9 55 12 85 4 30 9 64 11 75 2 11 7 40 10 65 3 25
8 53 10 63 2 10 6 46 9 80 3 34 8 69 10 77 2 8 7 42 10 75 3 33 7 71 10 83 2
12 7 61 10 110 4 48 9 95 11 105 24 127 24 739 -1 867 -2 10 -6 33 -9 51 -36
231 -124 419 -255 549 -144 142 -312 215 -596 256 -81 11 -414 15 -1603 17
-711 2 -1294 2 -1295 1z"/>
<path d="M1538 9085 c-2 -2 -32 -5 -68 -9 -104 -10 -123 -14 -221 -45 -136
-44 -247 -111 -344 -206 -101 -100 -115 -117 -164 -207 -50 -92 -85 -188 -107
-293 -19 -89 -23 -246 -10 -435 19 -299 24 -462 31 -885 5 -374 9 -451 30
-555 3 -14 8 -38 10 -53 10 -54 57 -183 87 -237 56 -103 138 -197 228 -262 87
-64 281 -144 395 -163 22 -4 45 -8 50 -9 92 -24 190 -30 505 -29 279 0 480 3
1265 18 110 2 346 7 525 10 761 13 750 13 833 34 246 64 471 236 590 451 13
25 28 59 32 75 5 17 10 37 12 45 3 8 11 58 19 110 20 130 31 206 39 265 3 22
7 51 10 65 2 14 7 43 9 65 11 90 17 133 26 200 5 39 12 95 15 125 3 30 8 78
11 105 31 296 36 729 10 913 -3 18 -8 52 -11 75 -27 181 -110 388 -202 502
-153 188 -380 288 -728 320 -63 6 -2871 15 -2877 10z"/>
</g>
</svg>
