<?xml version="1.0" standalone="no"?>
<!DOCTYPE svg PUBLIC "-//W3C//DTD SVG 20010904//EN"
 "http://www.w3.org/TR/2001/REC-SVG-20010904/DTD/svg10.dtd">
<svg version="1.0" xmlns="http://www.w3.org/2000/svg"
 width="1140.000000pt" height="1140.000000pt" viewBox="0 0 1140.000000 1140.000000"
 preserveAspectRatio="xMidYMid meet">
<metadata>
Created by potrace 1.11, written by Peter Selinger 2001-2013
</metadata>
<g transform="translate(0.000000,1140.000000) scale(0.100000,-0.100000)"
fill="#000000" stroke="none">
<path d="M1315 11393 c-78 -10 -236 -47 -314 -75 -212 -75 -396 -192 -561
-358 -214 -213 -345 -453 -412 -751 l-23 -104 0 -4405 0 -4405 23 -104 c67
-299 199 -540 411 -751 215 -214 454 -345 752 -412 l104 -23 4405 0 4405 0
104 23 c298 67 537 198 752 412 212 211 344 452 411 751 l23 104 0 4405 0
4405 -23 104 c-67 298 -198 538 -412 751 -207 208 -430 333 -730 408 l-105 27
-4390 1 c-2415 1 -4403 -1 -4420 -3z m4235 -2067 c384 -51 707 -147 1010 -301
637 -324 1088 -907 1260 -1630 16 -66 32 -135 35 -152 l7 -33 -470 0 -469 0
-37 103 c-180 491 -480 853 -866 1047 -273 137 -540 197 -915 207 -531 14
-937 -106 -1307 -385 -500 -376 -832 -1026 -947 -1854 -12 -82 -21 -157 -21
-168 0 -20 3 -20 2970 -20 l2970 0 0 1150 0 1150 400 0 400 0 0 -2775 0 -2775
-400 0 -400 0 0 1150 0 1150 -2966 0 -2967 0 7 -67 c11 -111 44 -290 81 -439
266 -1093 920 -1738 1870 -1844 226 -25 569 -8 787 40 352 77 686 274 913 539
140 164 302 436 391 658 l29 73 472 0 471 0 -20 -72 c-278 -984 -930 -1655
-1858 -1913 -428 -119 -973 -153 -1450 -90 -1203 158 -2076 896 -2476 2093
-272 811 -305 1825 -89 2677 336 1320 1193 2199 2380 2439 101 21 210 36 415
60 94 11 671 -2 790 -18z"/>
</g>
</svg>
