<svg xmlns="http://www.w3.org/2000/svg" viewBox="0 0 2712.98 729.46"><defs><style>.cls-1{fill:#39b54a;}.cls-2{fill:#ed1c24;}.cls-3{fill:#0071bc;}</style></defs><g id="Logo"><path class="cls-1" d="M669.85,457.14c29.72,0,59.46.61,89.16-.2,22.11-.6,46,21.64,47.11,48.08,1.21,29.91.34,59.92.16,89.88-.14,22.65-.87,45.31-.89,68,0,35.29-22.63,57-57.72,56.37-37.83-.71-75.7-.94-113.53-.36-31,.48-40.82,11.79-40.39,43.28.21,16,0,32-.11,48-.24,33.38-24.87,55.53-58.22,54.58-39.25-1.13-78.56-.22-117.83-.86-29.3-.48-49-22.1-48.52-51.62.28-18.66-.65-37.36.18-56,1.42-32.16,15-46.14,47.1-47.37,25.23-1,50.55.34,75.82.07,23.9-.25,47.83-.68,71.69-2.07,16.29-.94,29.65-9.67,30.59-26.33,2.09-37.09,3.42-74.42,1.32-111.44-1.1-19.47-20.37-30.33-45.77-30-31.85.39-63.66,3-95.5,3.48-16.82.25-34.27.34-50.4-3.68-26.11-6.52-39-34-36.52-60.55,2.6-27.6.6-55.64.45-83.48-.12-23.29-.5-46.57-.72-69.86-.22-24,25.7-44.23,55-43.74,35.27.59,70.55.95,105.82.72s49.5-15.32,50.18-50c.39-19.94.19-40.16,3.53-59.69,4.34-25.3,19.45-36.19,44.78-36.39,43.19-.33,86.39-.7,129.58-.63,32.76,0,47.88,11.24,51.08,43.46,2.78,28.08,6.88,57.44-8,84.12-10.71,19.15-27.28,27.41-49.58,27-46.49-.83-93-1-139.5-.09-17.29.34-33,9.8-33.82,28.05a981.7,981.7,0,0,0,1.25,113.4c1.25,17.4,15.87,27.13,34.33,27.32,19.31.2,38.62,0,57.93,0C669.84,458.14,669.84,457.64,669.85,457.14Z" transform="translate(-135.06 -135.32)"/><path class="cls-2" d="M248.88,544c18.63,0,37.27.19,55.91,0,39.82-.49,57.17,13.5,58.61,53.62.9,25.38-3.22,51.13-6.93,76.44-2.3,15.72-22.25,30.25-37.65,30.53q-58.38,1.08-116.76,2.13a158,158,0,0,1-17.95-.31c-33.32-3.17-47-19-46.92-52.24.07-19.75-.73-39.54-2-59.26-1.87-29.06,16.87-50.48,45.9-50.92,22.59-.33,45.19-.06,67.79-.06Z" transform="translate(-135.06 -135.32)"/><path class="cls-3" d="M921.29,296c18.64,0,37.28.19,55.92,0,39.82-.49,57.17,13.5,58.6,53.62.91,25.38-3.21,51.13-6.92,76.44-2.31,15.72-22.26,30.25-37.65,30.53q-58.38,1.08-116.76,2.13a158.12,158.12,0,0,1-18-.31c-33.31-3.17-47-19-46.92-52.24.08-19.75-.72-39.54-2-59.26-1.87-29.06,16.87-50.48,45.9-50.92,22.59-.33,45.19-.06,67.78-.06Z" transform="translate(-135.06 -135.32)"/></g><g id="Text"><path d="M956,526.24c-5.63-3.58-17.92-9-34.3-9-27.14,0-37.38,16.64-37.38,30.72,0,19.2,11.78,28.93,37.89,39.94,31.48,13.31,47.61,29.44,47.61,57.34,0,31-22.52,54.78-64.51,54.78-17.66,0-36.86-5.37-46.59-12.28l5.89-17.67c10.49,6.91,26.11,12,42,12,26.11,0,41.47-14.08,41.47-35.07,0-19.2-10.49-31-35.84-41.21-29.44-11-49.4-28.16-49.4-55,0-29.7,24.06-51.46,59.64-51.46,18.43,0,32.51,4.61,39.94,9.22Z" transform="translate(-135.06 -135.32)"/><path d="M1138.24,691.36c-9,4.35-26.37,8.7-48.64,8.7-50.18,0-90.62-32.51-90.62-98.56,0-63,39.16-102.14,96.25-102.14,23.3,0,36.87,4.87,43,7.94l-5.63,17.92c-9-4.35-21.51-7.94-36.87-7.94-44.28,0-74.49,29.7-74.49,83.46,0,51.2,27.65,81.4,73.21,81.4,14.85,0,29.44-3.32,39.17-7.93Z" transform="translate(-135.06 -135.32)"/><path d="M1311.29,697.25H1290V604.07h-93.18v93.18h-21.25V502.43h21.25v83.2H1290v-83.2h21.25Z" transform="translate(-135.06 -135.32)"/><path d="M1498.68,697.25h-21.24l-62.21-102.66c-13.06-21.76-25.6-43.52-35.07-65l-1,.26c1.79,24.83,2,47.61,2,81.4v86h-20V502.18h22.27l63,102.65c13.82,23.3,25.09,43.52,34,63.75l.51-.26c-2-27.14-2.56-50.43-2.56-81.15v-85h20.22Z" transform="translate(-135.06 -135.32)"/><path d="M1651.51,697.25H1548.6V502.18h98.56V520.1h-77.31v66h72.7v17.66h-72.7v75.52h81.66Z" transform="translate(-135.06 -135.32)"/><path d="M1792.31,697.25H1689.4V502.18H1788V520.1h-77.31v66h72.7v17.66h-72.7v75.52h81.66Z" transform="translate(-135.06 -135.32)"/><path d="M1898.8,600a26.37,26.37,0,1,1-26.36-26.37A26.33,26.33,0,0,1,1898.8,600Z" transform="translate(-135.06 -135.32)"/><path d="M2051.64,526.24c-5.64-3.58-17.92-9-34.31-9-27.13,0-37.37,16.64-37.37,30.72,0,19.2,11.77,28.93,37.88,39.94,31.49,13.31,47.62,29.44,47.62,57.34,0,31-22.53,54.78-64.51,54.78-17.67,0-36.87-5.37-46.59-12.28l5.89-17.67c10.49,6.91,26.11,12,42,12,26.11,0,41.47-14.08,41.47-35.07,0-19.2-10.5-31-35.84-41.21-29.44-11-49.41-28.16-49.41-55,0-29.7,24.07-51.46,59.65-51.46,18.43,0,32.51,4.61,39.94,9.22Z" transform="translate(-135.06 -135.32)"/><path d="M2220.08,520.35h-57.6v176.9h-21.25V520.35h-57.34V502.43h136.19Z" transform="translate(-135.06 -135.32)"/><path d="M2382.13,618.91c0,58.63-30.21,81.41-69.12,81.41-36.35,0-65.28-21.25-65.28-80.13V502.43H2269v118c0,44.29,19.45,62.21,45.05,62.21,28.16,0,46.85-18.95,46.85-62.21v-118h21.25Z" transform="translate(-135.06 -135.32)"/><path d="M2432.05,504.74a308.79,308.79,0,0,1,49.15-4.1c78.33,0,100.86,46.34,100.86,94.21,0,31-8.19,57.34-26.62,76.54-17.15,17.67-45.57,27.39-81.15,27.39-16.13,0-30-.51-42.24-2Zm21.24,175.61c6.4,1,15.62,1.28,24.84,1.28,52.73,0,81.66-30,81.66-85.76,0-50.68-27.14-78.08-77.82-78.08a152.82,152.82,0,0,0-28.68,2.56Z" transform="translate(-135.06 -135.32)"/><path d="M2620.72,502.18H2642V697.25h-21.24Z" transform="translate(-135.06 -135.32)"/><path d="M2848,597.92c0,68.61-38.4,102.4-84.48,102.4-48.38,0-82.68-38.14-82.68-99.07,0-63.49,36.09-102.14,85-102.14C2815.79,499.11,2848,539,2848,597.92Zm-144.89,2.82c0,41.47,21.5,81.92,61.18,81.92,40.19,0,61.44-39.17,61.44-83.71,0-39.17-19.2-82.18-60.93-82.18C2721.83,516.77,2703.15,559.27,2703.15,600.74Z" transform="translate(-135.06 -135.32)"/></g></svg>